<svg xmlns="http://www.w3.org/2000/svg"
shape-rendering="geometricPrecision"
width="4000" height="4000" viewBox="0 0 552 552"><rect width="100%" height="100%" fill="#FFFFFF" />
  <metadata>null</metadata>

<path d="
M 25.434 399.602
C 26.294 394.942 27.702 390.395 30.52 386.509
C 38.6 375.365 53.601 371.174 66.507 375.673
C 70.359 377.016 75.431 379.571 77.995 382.875
C 76.728 384.568 75.086 385.947 73.771 387.604
C 73.063 388.497 72.502 389.814 71.553 390.456
C 70.167 389.656 69.071 388.301 67.755 387.37
C 65.041 385.451 61.753 384.279 58.473 383.847
C 55.441 383.448 52.218 383.589 49.294 384.527
C 34.187 389.371 30.728 411.177 43.496 420.61
C 46.033 422.485 49.021 423.707 52.12 424.258
C 54.719 424.721 57.548 424.632 60.115 423.974
C 64.748 422.787 67.852 420.452 71.468 417.505
C 73.16 419.091 74.619 420.912 76.235 422.584
C 76.63 422.993 77.824 423.803 77.888 424.334
C 75.554 427.421 71.025 429.913 67.56 431.426
C 53.086 437.743 34.847 431.932 27.971 417.402
C 25.372 411.91 24.567 405.588 25.434 399.602 Z"
opacity="1" fill="rgb(24,13,74)" fill-rule="evenodd" />
<path d="
M 92.752 375.283
C 100.289 375.412 107.853 375.254 115.395 375.234
C 121.532 375.218 127.589 375.131 132.91 378.656
C 145.555 387.036 141.709 408.501 126.656 411.475
C 129.901 416.926 134.113 422.317 138.021 427.321
C 139.043 428.63 140.027 429.984 140.985 431.34
C 141.169 431.599 141.971 432.436 141.897 432.704
C 139.14 432.768 136.355 432.699 133.593 432.704
C 132.388 432.706 130.945 432.98 129.774 432.68
C 124.919 426.628 120.079 420.026 116.06 413.387
C 114.882 413.016 113.322 413.338 112.079 413.355
C 108.992 413.397 105.866 413.514 102.786 413.341
C 103.412 419.716 102.528 426.279 102.82 432.686
C 99.444 432.525 96.035 432.905 92.666 432.738
C 93.054 413.599 92.7 394.426 92.752 375.283 Z
M 103 386.118
C 102.292 392.068 103.265 398.228 102.906 404.206
C 104.361 404.734 107.389 404.061 109 404.051
C 114.473 404.018 122.603 405.233 126.974 401.29
C 132.505 396.301 129.971 386.552 122.67 385.029
C 119.372 384.341 115.808 384.727 112.463 384.781
C 109.64 384.826 105.766 384.147 103.095 385.072
C 103.05 385.868 103.091 385.521 103 386.118 Z"
opacity="1" fill="rgb(24,13,75)" fill-rule="evenodd" />
<path d="
M 157.302 375.274
C 171.746 375.036 186.349 375.975 200.767 375.176
C 200.563 378.269 200.42 381.774 200.796 384.852
C 195.066 384.525 189.242 384.827 183.503 384.83
C 178.252 384.834 172.865 384.527 167.638 385.032
C 167.054 386.003 167.31 387.513 167.306 388.622
C 167.299 391.145 167.227 393.666 167.24 396.19
C 167.244 396.957 166.972 398.86 167.442 399.398
C 174.203 398.752 181.219 399.23 188.009 399.23
C 190.743 399.23 194.886 398.463 197.449 399.348
C 197.156 402.347 197.414 405.383 197.334 408.391
C 190.095 408.749 182.758 408.443 175.509 408.451
C 173.58 408.453 171.654 408.449 169.726 408.429
C 169.032 408.421 167.871 408.286 167.253 408.637
C 167.057 413.418 167.676 418.382 167.187 423.127
C 178.479 422.382 189.894 423.752 201.191 423.069
C 201.186 426.128 200.689 429.671 201.256 432.678
C 191.183 432.737 181.084 432.585 171.004 432.585
C 166.464 432.585 161.809 432.285 157.283 432.625
C 156.905 425.286 157.234 417.853 157.208 410.503
C 157.168 398.771 156.98 387 157.302 375.274 Z"
opacity="1" fill="rgb(24,13,76)" fill-rule="evenodd" />
<path d="
M 276.328 118.717
C 275.807 120.482 276.155 122.658 276.144 124.502
C 276.122 128.3 275.246 133.304 276.361 136.948
C 276.259 136.938 276.158 136.927 276.056 136.917
C 269.198 136.72 262.277 137.55 255.48 138.36
C 251.614 139.049 247.66 140.055 243.912 141.223
C 242.182 141.746 240.306 141.923 238.542 142.326
C 235.887 143.522 232.885 144.059 230.119 144.976
C 225.389 146.543 220.751 148.442 216.258 150.596
C 212.753 152.277 208.133 155.018 206.325 158.631
C 205.119 161.042 205.781 164.866 205.783 167.501
C 205.79 174.17 205.785 180.841 205.778 187.508
C 205.734 189.533 205.809 191.54 205.839 193.561
C 205.814 195.288 206.03 197.097 205.781 198.81
C 204.529 199.612 202.658 200.88 201.117 200.847
C 198.959 199.336 197.21 197.113 195.287 195.317
C 192.988 193.17 190.303 191.5 187.953 189.431
C 187.43 187.726 187.82 185.299 187.81 183.501
C 187.787 179.338 187.768 175.174 187.675 171.011
C 187.571 166.408 187.587 161.803 187.577 157.198
C 187.573 155.311 187.245 152.577 188.102 150.84
C 190.821 145.324 197.171 140.913 202.162 137.674
C 208.956 133.264 216.636 130.174 224.31 127.657
C 233.111 124.77 242.105 122.172 251.286 120.794
C 257.112 119.919 262.936 119.032 268.831 118.789
C 270.761 118.709 272.69 118.63 274.62 118.577
C 275.2 118.56 275.921 118.928 276.328 118.717 Z"
opacity="1" fill="rgb(11,101,165)" fill-rule="evenodd" />
<path d="
M 206.378 228.392
C 205.696 229.488 206.069 233.393 206.792 234.447
C 206.59 236.468 207.451 238.825 207.89 240.8
C 208.878 245.256 210.02 249.639 211.709 253.886
C 219.328 273.047 234.685 290.176 252.505 300.497
C 256.266 303.791 261.928 306.6 266.584 308.333
C 269.113 309.215 271.445 310.718 273.931 311.734
C 274.267 311.872 276.045 312.772 276.223 312.681
C 275.246 317.049 276.114 322.396 276.097 326.866
C 276.091 328.192 276.637 330.77 276 331.944
C 267.65 329.249 259.635 325.079 251.947 320.909
C 217.653 302.308 190.135 269.094 188.057 229.01
C 187.772 223.511 187.86 218.003 187.885 212.497
C 187.897 209.659 187.471 206.457 188.242 203.716
C 192.651 207.519 196.69 211.795 200.786 215.937
C 202.35 217.519 204.844 218.858 206.075 220.664
C 206.246 223.151 205.753 225.978 206.378 228.392 Z"
opacity="1" fill="rgb(13,102,166)" fill-rule="evenodd" />
<path d="
M 205.778 187.508
C 206.381 186.742 206.535 185.817 207.126 185.059
C 208.811 182.898 210.632 180.87 212.473 178.839
C 213.507 177.698 215.596 176.214 216.033 174.725
C 214.638 172.786 213.063 171.87 212.494 169.397
C 210.994 162.884 216.888 157.427 223.257 158.75
C 226.358 159.395 227.416 161.65 229.619 163.502
C 232.658 161.534 235.735 159.4 238.587 157.17
C 239.033 156.003 238.711 154.283 238.722 153.035
C 238.748 149.88 239.531 145.319 238.542 142.326
C 240.306 141.923 242.182 141.746 243.912 141.223
C 242.276 142.051 242.789 144.779 242.782 146.308
C 242.769 149.327 242.806 152.346 242.801 155.364
C 242.799 156.731 243 158.384 242.423 159.657
C 239.395 162.98 234.703 164.606 230.981 167.021
C 230.51 168.299 230.744 169.786 230.254 171.124
C 228.592 175.659 224.905 176.655 220.503 176.769
C 218.93 177.63 217.662 179.622 216.473 180.951
C 214.18 183.513 211.954 186.133 209.803 188.816
C 208.548 190.381 207.386 192.282 205.839 193.561
C 205.809 191.54 205.734 189.533 205.778 187.508 Z
M 216.351 166.038
C 214.244 172.12 224.199 176.192 226.514 169.972
C 228.96 163.399 218.821 158.909 216.351 166.038 Z"
opacity="1" fill="rgb(171,185,198)" fill-rule="evenodd" />
<path d="
M 206.378 228.392
C 208.888 229.876 211.757 232.687 214.593 233.366
C 215.556 233.404 216.457 232.836 217.431 232.753
C 218.123 233.142 219.525 234.389 219.283 235.294
C 218.618 236.481 217.341 237.43 217.158 238.843
C 216.671 242.596 220.041 245.474 223.617 244.693
C 225.024 244.386 225.829 243.369 226.988 242.633
C 227.934 243.267 229.223 244.169 229.267 245.415
C 228.675 247.817 225.953 247.39 224.607 248.69
C 224.725 252.182 224.01 256.128 224.783 259.543
C 226.88 261.733 231.602 263.256 234.49 263.985
C 235.149 263.139 235.281 261.897 235.851 260.971
C 237.054 259.016 239.185 257.856 241.5 257.922
C 243.226 257.972 244.887 260.773 246.081 261.908
C 247.631 263.384 251.047 265.594 251.672 267.678
C 252.378 270.035 249.233 273.553 247.662 275.035
C 247.778 276.214 249.959 278.09 250.753 279.078
C 253.542 282.547 256.157 286.372 259.21 289.602
C 259.942 289.798 260.623 289.696 261.372 289.649
C 262.331 289.588 263.887 289.692 264.736 289.155
C 268.52 286.764 269.283 281.67 272.894 279.156
C 273.943 279.201 275.046 280.089 275.376 281.12
C 275.321 282.155 274.599 283.016 274.067 283.861
C 272.321 286.639 269.505 288.815 267.853 291.55
C 268.507 292.676 269.568 293.566 270.238 294.708
C 271.492 296.848 271.699 299.802 270.79 302.113
C 270.24 303.509 269.384 304.865 268.234 305.843
C 267.599 306.384 266.466 306.902 265.968 307.532
C 265.626 307.965 266.304 308.182 266.584 308.333
C 261.928 306.6 256.266 303.791 252.505 300.497
C 253.083 300.176 252.899 298.431 252.948 297.854
C 253.152 295.441 254.219 293.915 255.407 291.886
C 255.404 290.53 253.082 288.5 252.231 287.465
C 249.249 283.838 246.326 280.21 243.429 276.517
C 242.016 275.712 239.982 275.988 238.429 275.36
C 235.23 274.066 234.771 271.359 233.317 268.669
C 230.321 265.821 225.135 266.02 222.178 262.811
C 221.14 261.684 221.01 259.995 220.919 258.534
C 220.722 255.36 220.728 252.024 220.989 248.855
C 219.465 247.707 217.461 247.575 215.981 246.131
C 213.478 243.687 213.974 240.386 212.995 237.42
C 211.24 236.278 208.847 234.867 206.792 234.447
C 206.069 233.393 205.696 229.488 206.378 228.392 Z
M 237.273 265.01
C 235.112 271.293 244.937 275.589 247.337 269.339
C 249.823 262.867 239.655 258.083 237.273 265.01 Z
M 256.917 297.6
C 256.745 299.105 257.143 301.176 258.147 302.335
C 260.863 305.471 266.868 304.115 267.316 299.85
C 267.57 297.429 266.586 295.005 264.373 293.82
C 261.335 292.193 257.307 294.184 256.917 297.6 Z"
opacity="1" fill="rgb(166,180,194)" fill-rule="evenodd" />
<path d="
M 209.296 209.509
C 211.319 208.412 213.029 206.566 214.856 205.164
C 218.282 202.534 221.685 199.854 225.048 197.146
C 226.801 195.735 229.232 193.019 231.453 192.566
C 234.922 194.658 237.526 198.621 240.469 201.404
C 248.164 208.68 255.663 216.218 263.048 223.805
C 265.805 220.495 269.675 217.652 272.947 214.856
C 279.089 209.608 285.018 204.099 291.079 198.759
C 309.396 182.621 327.383 166.115 345.512 149.773
C 353.184 142.857 361.001 136.089 368.59 129.085
C 370.826 127.02 373.108 125.003 375.33 122.924
C 376.313 122.005 377.295 120.551 378.576 120.096
C 379.983 120.991 381.002 122.577 381.907 123.949
C 382.17 124.347 382.675 124.876 382.562 125.406
C 382.37 126.312 381.24 127.17 380.69 127.878
C 378.933 130.137 377.106 132.36 375.271 134.554
C 369.093 141.943 363.068 149.473 357.12 157.048
C 336.722 183.032 315.643 208.497 294.634 233.985
C 287.636 242.475 280.892 251.177 273.696 259.503
C 272.118 261.328 270.594 263.212 269.066 265.078
C 268.392 265.901 267.691 267.129 266.824 267.716
C 265.053 266.292 263.56 264.291 261.967 262.657
C 258.624 259.231 255.299 255.789 251.979 252.344
C 242.748 242.765 233.131 233.355 223.588 224.083
C 219.903 220.502 216.257 216.877 212.586 213.281
C 211.781 212.493 209.21 210.571 209.296 209.509 Z"
opacity="1" fill="rgb(22,16,82)" fill-rule="evenodd" />
<path d="
M 217.213 375.249
C 222.801 375.345 228.416 375.215 234.007 375.163
C 240.054 375.107 245.814 375.129 251.512 377.458
C 257.733 380.001 262.983 384.279 266.177 390.236
C 272.521 402.07 269.507 418.661 258.234 426.463
C 245.929 434.979 231.286 432.262 217.227 432.596
C 217.19 419.899 217.088 407.198 217.085 394.499
C 217.084 388.131 216.677 381.594 217.213 375.249 Z
M 227.302 384.886
C 226.888 388.183 227.214 391.678 227.213 395
C 227.209 401.5 227.265 408.001 227.26 414.501
C 227.257 417.337 227.562 420.354 227.162 423.158
C 227.769 423.547 229.03 423.274 229.75 423.256
C 231.923 423.201 234.101 423.252 236.275 423.272
C 242.543 423.331 249.37 422.052 253.753 417.132
C 262.748 407.033 259.06 389.556 245.589 385.617
C 239.974 383.976 233.088 384.387 227.302 384.886 Z"
opacity="1" fill="rgb(23,12,76)" fill-rule="evenodd" />
<path d="
M 256.963 176.389
C 258.379 176.364 259.66 176.38 261.038 176.749
C 265.747 177.387 268.766 181.019 269.378 185.548
C 270.975 185.484 272.586 185.59 274.19 185.551
C 274.728 185.538 275.586 185.725 275.953 185.304
C 275.573 174.578 276.083 163.741 276.081 153.002
C 276.08 149.608 276.094 146.213 276.074 142.819
C 276.063 141.111 275.712 139.086 276.24 137.441
C 276.281 137.277 276.321 137.113 276.361 136.948
C 280.217 136.363 284.566 137.042 288.425 137.454
C 297.541 138.427 306.615 140.281 315.327 143.159
C 319.254 144.456 323.236 145.617 327.028 147.277
C 327.877 147.649 329.947 149.228 330.844 148.871
C 318.673 160.524 305.532 171.238 293.036 182.547
C 289.031 186.171 285.034 189.816 281.048 193.461
C 279.58 194.804 277.876 197.203 276.033 197.932
C 276.122 196.122 275.951 194.326 275.98 192.519
C 275.99 191.926 276.122 191.131 275.777 190.646
C 273.934 190.482 271.921 190.227 270.084 190.502
C 269.323 192.574 268.398 194.512 266.936 196.191
C 260.519 203.562 248.792 198.01 247.025 189.48
C 246.599 187.419 247.272 185.329 247.993 183.415
C 248.61 181.774 249.582 180.174 250.889 178.99
C 252.585 177.453 254.79 176.891 256.963 176.389 Z
M 251.401 186.582
C 249.646 195.79 264.229 198.425 265.605 189.39
C 266.988 180.317 253.162 177.344 251.401 186.582 Z"
opacity="1" fill="rgb(11,103,165)" fill-rule="evenodd" />
<path d="
M 255.822 139.134
C 256.348 139.185 256.809 139.207 257.329 139.116
C 257.653 139.182 258.329 139.828 258.625 139.71
C 260.802 138.839 261.88 138.425 264.035 139.938
C 270.899 144.76 268.613 154.308 260.891 156.473
C 260.695 161.47 260.752 166.494 260.688 171.495
C 260.672 172.724 260.062 175.888 261.038 176.749
C 259.66 176.38 258.379 176.364 256.963 176.389
C 256.165 175.786 256.584 172.534 256.574 171.577
C 256.522 166.608 256.293 161.485 256.759 156.528
C 255.07 155.48 253.323 155.457 251.94 153.721
C 247.999 148.772 250.3 141.512 255.822 139.134 Z
M 253.892 145.549
C 251.584 152.35 261.928 155.917 264.113 149.408
C 266.361 142.711 256.215 138.705 253.892 145.549 Z"
opacity="1" fill="rgb(166,179,193)" fill-rule="evenodd" />
<path d="
M 276.223 312.681
C 284.425 309.222 292.151 305.074 299.583 300.178
C 302.037 298.561 306.068 296.797 307.842 294.456
C 309.389 293.76 310.617 292.506 311.825 291.348
C 317.697 286.402 323.342 280.563 327.858 274.343
C 329.445 273.144 330.525 270.883 331.62 269.24
C 334.543 263.904 337.871 258.987 340.132 253.282
C 342.797 246.554 343.867 239.738 345.507 232.759
C 346.309 232.336 345.684 229.22 345.859 228.451
C 346.423 221.392 346.158 214.074 346.101 206.993
C 346.182 205.67 346.095 204.303 346.082 202.974
C 346.095 199.42 346.265 195.845 346.281 192.28
C 346.287 190.872 345.888 188.813 346.361 187.482
C 347.135 185.306 350.1 182.998 351.543 181.152
C 355.508 176.083 359.415 170.79 363.723 166.015
C 364.36 166.924 364.028 168.112 364.019 169.164
C 363.997 171.632 364.09 174.114 364.097 176.587
C 364.125 186.225 364.142 195.864 364.17 205.502
C 364.207 217.824 364.793 230.523 362.198 242.645
C 355.666 273.164 335.192 298.485 309.524 315.452
C 301.586 320.699 293.277 325.231 284.443 328.789
C 282.501 329.57 280.561 330.326 278.599 331.055
C 277.772 331.363 276.893 332 276 331.944
C 276.637 330.77 276.091 328.192 276.097 326.866
C 276.114 322.396 275.246 317.049 276.223 312.681 Z"
opacity="1" fill="rgb(24,18,85)" fill-rule="evenodd" />
<path d="
M 276.328 118.717
C 278.159 118.25 280.437 118.68 282.314 118.798
C 286.263 119.048 290.163 119.421 294.089 119.918
C 306.778 121.522 319.224 124.704 331.15 129.287
C 334.415 130.541 337.668 131.86 340.822 133.375
C 342.225 134.049 343.782 134.555 345.004 135.545
C 344.209 137.319 341.459 138.839 339.978 140.102
C 336.754 142.851 333.866 145.94 330.844 148.871
C 329.947 149.228 327.877 147.649 327.028 147.277
C 323.236 145.617 319.254 144.456 315.327 143.159
C 306.615 140.281 297.541 138.427 288.425 137.454
C 284.566 137.042 280.217 136.363 276.361 136.948
C 275.246 133.304 276.122 128.3 276.144 124.502
C 276.155 122.658 275.807 120.482 276.328 118.717 Z"
opacity="1" fill="rgb(25,16,83)" fill-rule="evenodd" />
<path d="
M 345.859 228.451
C 345.684 229.22 346.309 232.336 345.507 232.759
C 342.155 233.845 337.927 231.944 334.52 233.077
C 333.528 238.49 329.426 240.08 324.53 240.368
C 322.101 243.538 319.516 246.594 316.951 249.657
C 315.695 251.157 313.942 252.762 313.093 254.535
C 312.281 256.23 312.851 258.762 312.677 260.602
C 313.528 261.069 314.518 261.139 315.379 261.618
C 318.215 263.198 320.069 265.833 320.336 269.076
C 320.75 269.544 321.971 269.251 322.586 269.249
C 324.726 269.245 326.865 269.259 329.005 269.296
C 329.636 269.308 331.207 269.681 331.62 269.24
C 330.525 270.883 329.445 273.144 327.858 274.343
C 327.805 273.557 326.779 273.856 326.106 273.87
C 324.414 273.904 322.723 273.95 321.033 274.024
C 319.4 278.669 316.752 281.505 311.874 282.497
C 311.588 283.22 311.762 284.208 311.746 284.992
C 311.705 287.11 311.645 289.234 311.825 291.348
C 310.617 292.506 309.389 293.76 307.842 294.456
C 307.638 291.823 307.737 289.139 307.791 286.501
C 307.814 285.326 308.171 283.719 307.73 282.628
C 302.698 281.46 300.811 278.304 299.189 273.634
C 296.143 273.84 293.055 273.76 290.002 273.748
C 288.173 273.741 286.102 273.897 284.351 273.305
C 283.01 271.669 283.191 268.806 282.937 266.801
C 282.836 266.009 282.524 264.83 282.878 264.084
C 283.769 262.206 285.819 260.28 287.194 258.715
C 287.31 261.134 287.295 263.569 287.289 265.993
C 287.286 266.934 287.011 268.567 287.442 269.377
C 291.223 269.002 295.553 268.874 299.326 269.379
C 300.064 264.244 303.139 261.131 308.355 260.713
C 309.179 258.13 307.551 254.873 309.092 252.373
C 309.814 251.201 310.987 250.292 311.846 249.219
C 313.754 246.84 315.608 244.424 317.472 242.011
C 318.088 241.213 320.09 239.518 320.172 238.548
C 315.444 235.967 314.435 229.213 317.219 224.823
C 319.509 221.21 324.229 219.651 328.26 220.982
C 329.627 221.433 330.881 222.175 331.891 223.201
C 333.295 224.629 334.044 226.321 334.651 228.19
C 337.42 227.991 340.227 228.212 343.003 228.178
C 343.814 228.169 345.228 227.887 345.859 228.451 Z
M 303.378 270.081
C 302.764 273.397 304.15 276.446 307.239 277.928
C 310.899 279.684 315.851 277.41 316.616 273.383
C 317.172 270.455 316.078 267.298 313.51 265.677
C 309.437 263.105 304.24 265.422 303.378 270.081 Z
M 319.874 229.093
C 319.651 230.488 319.61 232.091 320.371 233.341
C 322.965 237.605 329.839 237.015 330.847 231.821
C 332.236 224.665 321.082 221.534 319.874 229.093 Z"
opacity="1" fill="rgb(7,91,144)" fill-rule="evenodd" />
<path d="
M 286.173 375.196
C 296.579 375.654 307.09 375.138 317.51 375.174
C 320.343 375.184 323.177 375.203 326.011 375.219
C 327.157 375.225 328.908 374.859 329.932 375.344
C 329.691 378.344 330.44 381.794 329.884 384.715
C 322.424 384.742 314.962 384.787 307.501 384.78
C 303.896 384.776 299.593 384.164 296.079 385.001
C 295.96 389.696 296.132 394.429 296.153 399.134
C 306.254 398.122 316.594 399.706 326.704 398.956
C 326.723 401.992 327.088 405.306 326.819 408.312
C 316.578 407.632 306.192 409.063 295.943 408.224
C 296.162 411.67 296.058 415.153 296.07 418.607
C 296.075 420.069 295.857 421.707 296.195 423.129
C 300.593 422.785 305.096 423.04 309.507 423.032
C 316.46 423.021 323.437 422.871 330.378 422.979
C 330.134 425.96 329.922 429.571 330.469 432.518
C 330.157 432.94 328.444 432.601 327.976 432.586
C 325.238 432.499 322.507 432.527 319.765 432.538
C 312.345 432.568 304.924 432.573 297.504 432.566
C 293.83 432.562 289.945 432.204 286.297 432.6
C 285.725 425.314 286.242 417.816 286.192 410.505
C 286.112 398.771 285.745 386.919 286.173 375.196 Z"
opacity="1" fill="rgb(23,13,77)" fill-rule="evenodd" />
<path d="
M 346.082 202.974
C 346.095 204.303 346.182 205.67 346.101 206.993
C 345.472 205.606 343.268 206.063 341.85 206.038
C 339.319 205.993 336.78 206.023 334.25 206.097
C 333.122 206.13 331.831 206.422 330.738 206.122
C 331.937 204.786 332.783 202.515 334.336 201.588
C 337.304 201.655 340.275 201.499 343.243 201.475
C 343.901 201.47 345.645 201.238 346.052 201.899
C 346.2 202.139 346.009 202.681 346.082 202.974 Z"
opacity="1" fill="rgb(78,134,173)" fill-rule="evenodd" />
<path d="
M 346.48 393.619
C 347.04 387.553 345.892 381.278 346.706 375.242
C 349.681 375.46 352.626 375.14 355.591 375.195
C 357.657 379.353 361.746 382.896 364.561 386.584
C 371.782 396.046 379.582 405.066 386.646 414.631
C 386.2 410.898 386.72 406.775 386.738 403.003
C 386.781 393.774 387.056 384.476 386.732 375.253
C 390.05 375.355 393.753 374.81 397.013 375.29
C 396.064 385.531 396.946 396.222 396.919 406.511
C 396.905 412.177 396.902 417.843 396.896 423.509
C 396.893 426.452 396.627 429.604 397.004 432.521
C 396.339 432.858 395.113 432.574 394.385 432.576
C 392.436 432.581 390.511 432.529 388.563 432.58
C 387.594 431.92 386.949 430.448 386.219 429.509
C 384.52 427.323 382.724 425.212 381.031 423.019
C 375.553 415.924 370.074 408.75 364.359 401.847
C 362.358 399.43 360.495 396.915 358.563 394.448
C 358.135 393.902 357.14 392.119 356.504 392.328
C 356.785 405.628 355.856 419.116 356.46 432.409
C 353.229 432.65 349.95 432.443 346.715 432.598
C 346.298 419.681 346.047 406.536 346.48 393.619 Z"
opacity="1" fill="rgb(25,13,78)" fill-rule="evenodd" />
<path d="
M 414.486 400.601
C 415.716 393.039 418.809 386.014 424.778 380.998
C 436.17 371.425 456.923 370.746 467.06 382.87
C 466.168 385.01 463.508 386.744 462.153 388.707
C 461.876 389.108 461.294 390.425 460.738 390.404
C 456.387 387.417 452.988 384.589 447.528 383.792
C 444.719 383.383 441.733 383.531 438.997 384.301
C 422.796 388.86 419.781 411.703 433.408 421.065
C 435.296 422.363 437.414 423.312 439.641 423.857
C 442.437 424.542 445.351 424.628 448.187 424.135
C 453.453 423.218 456.772 420.029 461.08 417.321
C 462.576 419.107 464.079 420.938 465.718 422.594
C 465.98 422.86 467.389 423.985 467.233 424.233
C 456.031 437.103 434.245 436.893 422.551 425.105
C 416.198 418.701 413.435 409.476 414.486 400.601 Z"
opacity="1" fill="rgb(24,13,77)" fill-rule="evenodd" />
<path d="
M 482.22 375.237
C 496.63 375.79 511.321 375.512 525.74 375.187
C 526.155 375.814 525.875 377.232 525.855 377.999
C 525.798 380.247 525.992 382.513 525.883 384.757
C 517.425 384.696 508.961 384.79 500.501 384.786
C 498.503 384.785 496.498 384.761 494.5 384.816
C 493.758 384.837 492.673 384.618 492.139 385.177
C 492.365 389.827 492.375 394.604 492.083 399.25
C 497.144 399.608 502.423 399.153 507.508 399.143
C 512.504 399.133 517.733 399.582 522.698 399.048
C 522.791 402.05 522.882 405.326 522.65 408.316
C 520.799 409.158 517.047 408.436 515.008 408.44
C 510.008 408.449 505.008 408.449 500.009 408.454
C 497.568 408.457 494.526 408.018 492.189 408.781
C 492.299 413.575 492.124 418.379 492.133 423.174
C 496.999 422.655 502.111 423.094 507.005 423.083
C 513.373 423.069 519.853 422.707 526.208 423.104
C 527.515 425.808 525.432 429.839 526.669 432.666
C 520.458 431.863 513.731 432.491 507.467 432.479
C 499.165 432.463 490.632 431.901 482.357 432.519
C 481.863 430.155 482.228 427.417 482.232 425.005
C 482.24 420.339 482.242 415.673 482.236 411.006
C 482.226 403.006 482.154 395.006 482.156 387.006
C 482.157 383.129 481.82 379.091 482.22 375.237 Z"
opacity="1" fill="rgb(25,15,79)" fill-rule="evenodd" />

</svg>